<svg width="48" height="48" viewBox="0 0 48 48" fill="none" xmlns="http://www.w3.org/2000/svg">
<rect width="48" height="48" rx="15" fill="#0F1218"/>
<path d="M9 8H25C33.2843 8 40 14.7157 40 23V39H24C15.7157 39 9 32.2843 9 24V8Z" fill="#6B717E"/>
<rect x="9" y="8" width="31" height="31" rx="15" fill="#0F1218"/>
<path d="M24.568 32.24C23.864 32.24 23.232 32.208 22.672 32.144C22.128 32.08 21.528 31.96 20.872 31.784C20.136 31.592 19.528 31.344 19.048 31.04C18.568 30.72 18.168 30.28 17.848 29.72C17.512 29.16 17.344 28.496 17.344 27.728V20.888C17.344 17.752 19.752 16.184 24.568 16.184C25.8 16.184 27.448 16.36 29.512 16.712V19.52C27.656 19.072 26.024 18.848 24.616 18.848C24.024 18.848 23.56 18.864 23.224 18.896C22.904 18.928 22.568 19.008 22.216 19.136C21.464 19.392 21.088 19.96 21.088 20.84V27.464C21.088 28.872 22.376 29.576 24.952 29.576C26.056 29.576 27.608 29.344 29.608 28.88V31.712C27.896 32.064 26.216 32.24 24.568 32.24Z" fill="#8B2635"/>
</svg>
